<svg height="56" viewBox="0 0 278 504" fill="none" xmlns="http://www.w3.org/2000/svg">
<path d="M169.47 443.351C169.47 443.442 169.47 443.533 169.47 443.622C169.47 443.622 169.47 443.623 169.47 443.623C169.47 443.623 169.47 443.624 169.47 443.624C169.478 447.001 169.624 448.656 169.872 449.703C170.002 450.251 170.157 450.621 170.308 450.953C170.331 451.005 170.354 451.054 170.376 451.103C170.492 451.353 170.59 451.567 170.694 451.878C170.946 452.633 171.483 453.108 172.119 453.33C172.706 453.536 173.334 453.515 173.86 453.428C174.399 453.338 174.922 453.162 175.352 452.968C175.757 452.786 176.181 452.544 176.455 452.269C176.829 451.895 177.33 451.22 177.669 450.543C177.838 450.205 178 449.802 178.058 449.394C178.114 449.001 178.099 448.392 177.628 447.922C177.63 447.924 177.63 447.923 177.628 447.921C177.619 447.907 177.572 447.837 177.495 447.64C177.453 447.533 177.411 447.414 177.361 447.271C177.357 447.258 177.352 447.245 177.348 447.232C177.303 447.104 177.253 446.958 177.198 446.812C176.97 446.204 176.566 445.281 175.609 444.802C175.084 444.54 174.69 444.278 174.25 443.985L174.239 443.977C173.851 443.719 173.426 443.436 172.886 443.15C172.562 442.739 172.255 442.418 171.955 442.196C171.634 441.96 171.134 441.702 170.562 441.856C169.972 442.015 169.712 442.498 169.609 442.775C169.537 442.97 169.5 443.169 169.483 443.351H169.47ZM175.951 460.602C175.957 460.626 175.963 460.65 175.969 460.674L175.969 460.675L175.998 460.786C176.603 463.133 177.48 465.18 178.122 466.676L178.153 466.749C178.484 467.521 178.728 468.097 178.861 468.515C178.892 468.614 178.912 468.69 178.925 468.746C178.864 468.861 178.813 469.005 178.8 469.177C178.763 469.66 179.041 469.982 179.245 470.132C179.422 470.262 179.606 470.319 179.704 470.345C179.82 470.375 179.935 470.394 180.036 470.406C180.399 470.45 180.906 470.45 181.344 470.45L181.393 470.45C181.8 470.45 182.171 470.45 182.466 470.468C182.563 470.912 182.737 471.44 182.992 471.95C183.416 472.798 184.166 473.798 185.403 474.211C186.799 474.676 188.059 473.949 188.772 473.236C189.143 472.865 189.454 472.418 189.624 471.964C189.759 471.605 189.942 470.836 189.397 470.249C189.389 470.237 189.373 470.213 189.349 470.173C189.295 470.085 189.223 469.959 189.133 469.793C188.954 469.462 188.724 469.013 188.454 468.477C188.276 468.125 188.082 467.737 187.877 467.326C187.463 466.498 187.002 465.576 186.535 464.668C185.837 463.308 185.108 461.941 184.472 460.908C184.157 460.395 183.846 459.932 183.558 459.587C183.415 459.416 183.253 459.243 183.076 459.104C182.928 458.989 182.617 458.773 182.2 458.773C181.795 458.773 181.49 458.676 181.178 458.551C181.14 458.536 181.094 458.517 181.043 458.495C180.917 458.443 180.763 458.38 180.636 458.335C180.459 458.272 180.23 458.205 179.968 458.19C178.677 457.946 177.657 458.106 176.933 458.637C176.197 459.177 175.953 459.967 175.967 460.56L175.968 460.598L175.951 460.602ZM178.946 468.867C178.947 468.88 178.946 468.879 178.946 468.866L178.946 468.867ZM180.561 469.864C180.563 469.861 180.566 469.858 180.569 469.856C180.566 469.859 180.563 469.861 180.562 469.863L180.561 469.864ZM176.121 489.67L176.067 489.742L176.027 489.823C175.044 491.789 174.903 493.643 175.308 495.309C175.709 496.952 176.624 498.345 177.655 499.455C178.687 500.566 179.867 501.43 180.868 502.019C181.369 502.314 181.838 502.547 182.235 502.71C182.58 502.852 183.009 503 183.373 503C183.703 503 184.022 502.903 184.28 502.801C184.552 502.693 184.834 502.545 185.108 502.38C185.658 502.048 186.243 501.602 186.764 501.122C187.278 500.647 187.773 500.098 188.105 499.548C188.271 499.273 188.421 498.958 188.495 498.623C188.57 498.284 188.579 497.86 188.373 497.447C188.295 497.291 188.179 497.047 188.038 496.747C187.722 496.077 187.276 495.131 186.822 494.274C186.485 493.636 186.114 492.99 185.741 492.456C185.402 491.969 184.948 491.406 184.406 491.135C184.401 491.132 184.4 491.132 184.399 491.13C184.399 491.13 184.399 491.13 184.399 491.13C184.394 491.124 184.375 491.096 184.356 491.026C184.315 490.874 184.299 490.607 184.361 490.202C184.485 489.396 184.874 488.33 185.44 487.198C186.127 485.825 186.293 484.3 186.123 483.027C186.038 482.388 185.864 481.779 185.601 481.265C185.344 480.763 184.959 480.268 184.406 479.992C184.281 479.929 184.052 479.748 183.713 479.391C183.391 479.053 183.047 478.64 182.675 478.193L182.662 478.178C182.305 477.749 181.921 477.289 181.55 476.899C181.302 476.637 181.018 476.361 180.713 476.14C180.351 474.97 179.682 473.837 178.598 473.205C177.313 472.455 175.739 472.571 174.061 473.577C172.379 474.586 171.586 475.852 171.388 477.142C171.197 478.378 171.579 479.476 171.921 480.161L172.809 479.717L171.921 480.161C172.145 480.607 172.501 480.996 172.805 481.3C172.963 481.458 173.128 481.613 173.28 481.756L173.285 481.761C173.443 481.91 173.588 482.046 173.722 482.18C174.004 482.462 174.161 482.66 174.231 482.8C174.237 482.812 174.242 482.822 174.245 482.83C173.949 483.422 173.338 484.651 173.023 485.834C172.864 486.43 172.747 487.128 172.856 487.771C172.977 488.482 173.395 489.171 174.259 489.459L174.483 489.534L174.717 489.501C175.484 489.391 175.953 489.407 176.219 489.459C176.229 489.461 176.239 489.463 176.249 489.465C176.218 489.528 176.175 489.598 176.121 489.67ZM176.413 489.52C176.413 489.52 176.411 489.519 176.408 489.517C176.412 489.519 176.413 489.52 176.413 489.52ZM176.305 489.307C176.306 489.306 176.306 489.305 176.306 489.305L176.305 489.307Z" fill="#0078B9" stroke="white" stroke-width="2"/>
<path d="M164.036 403.13C165.363 404.837 165.929 407.028 165.95 409.76C165.83 410.121 165.724 410.449 165.656 410.738C165.575 411.089 165.532 411.45 165.598 411.845C165.662 412.229 165.816 412.566 165.998 412.888C166.172 413.195 166.409 413.55 166.686 413.966L166.705 413.994C167.251 414.813 168.539 417.098 169.541 419.603C170.041 420.852 170.457 422.126 170.679 423.278C170.906 424.454 170.907 425.388 170.694 426.026C170.011 428.077 170.363 430.531 171.084 432.293C171.444 433.173 171.942 433.995 172.559 434.524C172.873 434.793 173.266 435.028 173.729 435.106C174.219 435.189 174.705 435.082 175.13 434.799C175.744 434.39 176.281 433.689 176.754 433.028C176.925 432.788 177.094 432.546 177.265 432.3C177.61 431.804 177.964 431.294 178.372 430.766C179.572 429.213 181.011 427.817 183.029 427.313C184.485 426.948 186.132 427.535 187.729 428.645C189.299 429.736 190.63 431.204 191.361 432.209L192.05 433.155L192.877 432.328C193.342 431.863 194.165 431.337 195.187 430.886C196.196 430.442 197.321 430.106 198.34 429.973C199.393 429.837 200.175 429.937 200.627 430.187C200.83 430.299 200.959 430.436 201.04 430.607C201.125 430.786 201.191 431.071 201.145 431.521L201.062 432.353L201.866 432.582C203.191 432.961 203.675 433.629 204.411 434.645C204.592 434.896 204.788 435.167 205.017 435.461C205.58 436.185 206.294 436.945 207.409 437.598C208.514 438.244 209.961 438.753 211.959 439.061L213.111 439.238V438.072V435.14V435.057L213.097 434.975C212.983 434.292 212.682 433.274 212.115 432.397C211.549 431.522 210.597 430.621 209.178 430.621C207.606 430.621 205.512 429.989 204.474 429.598C203.961 429.015 203.141 427.723 203.141 426.342C203.141 425.845 202.976 425.337 202.775 424.883C202.567 424.413 202.28 423.915 201.951 423.413C201.294 422.407 200.419 421.307 199.527 420.267C197.742 418.184 195.814 416.256 195.225 415.667L195.223 415.665C195.037 415.479 194.656 414.964 194.282 414.181C193.916 413.416 193.587 412.456 193.456 411.409C193.209 409.439 193.652 407.121 196.024 405.077C196.787 405.176 197.702 405.622 199.24 406.647C199.5 406.821 199.935 407.062 200.441 406.99C201.107 406.894 201.399 406.369 201.497 406.03C201.589 405.713 201.585 405.375 201.565 405.111C201.543 404.827 201.494 404.522 201.435 404.226C201.317 403.636 201.142 402.998 201.007 402.5C200.937 402.244 200.879 402.031 200.838 401.864C200.808 401.743 200.798 401.687 200.795 401.674C200.794 401.67 200.794 401.67 200.794 401.674C200.785 401.395 200.67 401.189 200.588 401.074C200.504 400.954 200.41 400.87 200.352 400.822C200.238 400.726 200.103 400.642 200.016 400.588C199.986 400.569 199.957 400.551 199.927 400.533C199.748 400.422 199.567 400.31 199.369 400.157C198.931 399.819 198.445 399.306 198.189 398.425C197.663 396.614 198.013 392.87 202.912 385.348C202.974 385.294 203.053 385.231 203.146 385.157C203.737 384.683 204.872 383.773 205.435 382.085C206.06 380.21 205.56 378.79 205.062 377.378C204.99 377.172 204.917 376.967 204.849 376.761C204.629 376.1 204.169 375.525 203.668 375.055C203.156 374.576 202.536 374.145 201.898 373.786C200.657 373.088 199.161 372.558 198.035 372.558C197.934 372.558 197.645 372.474 197.13 372.099C196.655 371.753 196.131 371.267 195.59 370.725C195.322 370.457 195.057 370.183 194.797 369.914L194.764 369.88C194.517 369.624 194.272 369.37 194.041 369.14C193.801 368.899 193.563 368.67 193.339 368.478C193.125 368.294 192.876 368.101 192.617 367.972C191.88 367.603 191.197 367.856 190.76 368.128C190.368 368.373 190.005 368.737 189.739 369.003L189.704 369.039C189.386 369.357 189.178 369.557 189.001 369.668C188.996 369.671 188.991 369.674 188.986 369.677C188.684 369.536 188.317 369.4 187.961 369.267L187.836 369.221C187.371 369.048 186.872 368.858 186.362 368.62C185.339 368.143 184.329 367.497 183.586 366.507C183.491 366.379 183.4 366.259 183.314 366.144C182.56 365.142 182.162 364.613 181.955 364.096C181.772 363.637 181.729 363.142 181.997 362.071C182.091 361.696 182.384 361.172 182.915 360.491C183.431 359.829 184.097 359.109 184.83 358.339C184.994 358.166 185.163 357.991 185.334 357.812C186.637 356.454 188.08 354.949 188.922 353.545C189.543 352.511 189.54 351.271 189.396 350.145C189.291 349.33 189.088 348.43 188.891 347.562C188.817 347.232 188.743 346.906 188.676 346.592C188.152 344.121 188.022 342.171 189.358 340.835C190.549 339.644 193.38 336.666 195.7 333.373C196.858 331.729 197.917 329.968 198.573 328.285C199.217 326.631 199.542 324.876 198.971 323.355C198.724 322.695 198.324 321.931 197.894 321.132C197.811 320.977 197.725 320.819 197.639 320.66C197.267 319.972 196.869 319.237 196.475 318.442C195.506 316.487 194.611 314.261 194.337 311.863C194.065 309.486 194.401 306.918 195.934 304.245C197.475 301.555 200.264 298.697 205.005 295.823L205.299 295.645L205.421 295.324C206.626 292.161 207.779 287.091 209.073 281.294C209.141 280.989 209.21 280.682 209.279 280.373C210.529 274.764 211.931 268.481 213.659 262.398C215.485 255.973 217.659 249.829 220.37 244.981C223.094 240.11 226.267 236.715 230.012 235.511L230.392 235.389L230.584 235.038C237.675 222.037 241.253 211.332 241.848 197.654C242.001 194.139 241.314 190.217 240.393 186.259C239.954 184.37 239.457 182.453 238.964 180.555L238.889 180.266C238.371 178.269 237.862 176.295 237.426 174.37C236.55 170.503 235.994 166.924 236.237 163.875C236.477 160.877 237.481 158.48 239.654 156.797C239.957 156.601 240.119 156.309 240.197 156.153C240.306 155.934 240.391 155.68 240.461 155.423C240.602 154.903 240.717 154.23 240.807 153.465C240.987 151.927 241.08 149.902 241.042 147.741C241.005 145.58 240.837 143.257 240.489 141.127C240.143 139.016 239.607 137.013 238.791 135.543C237.407 133.052 236.111 128.353 235.156 123.8C234.204 119.256 233.638 115.094 233.638 113.742C233.638 112.436 234.183 109.922 234.917 107.426C235.278 106.2 235.673 105.016 236.047 104.037C236.43 103.032 236.764 102.319 236.989 101.98C237.501 101.213 238.733 99.9691 239.845 98.931C240.286 98.5197 240.689 98.1577 240.991 97.8945C241.18 97.8543 241.316 97.7709 241.376 97.7307C241.814 97.4391 242.013 96.9021 242.064 96.3934C242.173 95.3071 241.718 93.5957 239.922 90.9006C239.069 89.6219 238.705 88.7873 238.58 88.2365C238.466 87.7383 238.55 87.4942 238.648 87.3155C238.711 87.2001 238.799 87.0806 238.929 86.9241C238.961 86.8866 238.999 86.8414 239.042 86.7912C239.148 86.6677 239.279 86.5144 239.387 86.3742C239.741 85.9147 240.09 85.3013 240.09 84.4174V84.4022C240.09 83.2116 240.09 81.1609 239.222 78.7947C238.345 76.4038 236.608 73.7515 233.226 71.2923C230.074 69.0001 228.528 67.3042 227.485 65.9831C227.246 65.6803 227.022 65.3796 226.802 65.0838C226.102 64.1431 225.439 63.2522 224.441 62.5037C224.064 62.2209 223.603 61.5447 223.047 60.4433C222.686 59.7262 222.33 58.9284 221.953 58.0815C221.767 57.666 221.577 57.2386 221.378 56.8031C220.789 55.5145 220.136 54.1824 219.387 53.0891C218.654 52.0173 217.728 51.0235 216.533 50.6251C216.245 50.5292 215.843 50.3023 215.321 49.9092C214.811 49.5247 214.239 49.022 213.615 48.4294C212.702 47.562 211.721 46.546 210.696 45.484C210.312 45.0865 209.923 44.6826 209.528 44.2777C208.098 42.8111 206.61 41.3394 205.207 40.2319C204.504 39.6773 203.797 39.1939 203.108 38.8459C202.425 38.5015 201.697 38.2575 200.968 38.2575C199.779 38.2575 198.908 38.5166 198.181 38.8374C197.882 38.9696 197.603 39.1142 197.362 39.2392C197.324 39.2589 197.287 39.2782 197.251 39.2968C196.974 39.4398 196.744 39.5532 196.511 39.6408C196.084 39.8008 195.607 39.8893 194.877 39.7579C194.12 39.6217 193.073 39.2452 191.539 38.4141C185.884 34.1472 181.15 26.8641 177.429 20.1515C176.001 17.5754 174.737 15.1118 173.63 12.9548C173.295 12.3019 172.975 11.677 172.668 11.0857C172.012 9.81986 171.418 8.70041 170.892 7.80128C170.38 6.92555 169.884 6.17346 169.418 5.70681C167.756 4.04574 164.608 2.67133 161.329 1.85151C158.025 1.0255 154.335 0.699008 151.485 1.33228C145.855 2.58348 139.741 6.93784 136.111 16.0129L136.04 16.1917V16.3843C136.04 17.1511 136.044 17.9717 136.049 18.8336C136.071 22.9564 136.097 28.022 135.677 32.6422C135.424 35.4335 135.01 38.0099 134.354 40.0829C133.689 42.1872 132.825 43.6026 131.793 44.2904C130.606 45.0817 129.041 45.6708 127.257 46.1551C125.659 46.5887 123.95 46.9221 122.253 47.2532C122.059 47.291 121.865 47.3289 121.672 47.3668C119.812 47.7314 117.969 48.1094 116.438 48.6292C114.942 49.1375 113.528 49.8487 112.748 51.0191C110.302 54.6883 107.888 60.1576 107.888 68.5821C107.888 72.4093 106.243 76.1719 104.027 79.4598C101.817 82.7383 99.099 85.4586 97.0941 87.1771C96.0553 88.0675 95.2393 88.8093 94.5573 89.436C94.4383 89.5454 94.324 89.6507 94.2137 89.7522C93.6865 90.2377 93.2523 90.6376 92.842 90.9893C91.8873 91.8076 91.1003 92.3323 89.7491 92.8728C89.3839 93.0189 88.8861 92.9912 88.0814 92.6511C87.4079 92.3664 86.6802 91.9361 85.8187 91.4267C85.6431 91.3228 85.4619 91.2157 85.2744 91.1058C83.1509 89.861 80.4045 88.3721 77.1181 88.7008C75.6689 88.8457 74.9075 88.832 74.4128 88.7401C73.9698 88.6579 73.7015 88.5088 73.2131 88.1948C73.1717 88.1682 73.1292 88.1408 73.0854 88.1125C72.5882 87.7911 71.928 87.3644 70.8644 86.8867C69.7161 86.3709 68.1179 85.8036 65.7303 85.2067L65.6109 85.1769H65.4878C60.9788 85.1769 58.3321 84.2006 55.838 83.1317C55.5838 83.0227 55.33 82.9122 55.0749 82.8011C52.787 81.8044 50.4013 80.7652 46.7967 80.4879C39.2748 79.9093 32.9058 78.1721 29.4415 77.0173C28.2634 76.6246 27.478 76.2541 26.7326 75.9025C26.3935 75.7425 26.0627 75.5864 25.707 75.434C24.5645 74.9443 23.4046 74.62 21.5009 74.62C19.7891 74.62 18.4774 75.3409 17.5573 76.2144C17.0837 76.664 16.7066 77.1599 16.4202 77.6345C15.8208 77.1854 15.1139 76.6162 14.5836 76.0859C13.857 75.3593 12.6723 74.6968 11.512 74.3652C10.9238 74.1972 10.2859 74.0976 9.67295 74.1467C9.05684 74.196 8.40086 74.403 7.89093 74.9129C7.77413 75.0297 7.66197 75.1274 7.54822 75.2224C7.52338 75.2431 7.49537 75.2662 7.46552 75.2908C7.37665 75.364 7.27148 75.4507 7.18485 75.5291C6.91214 75.7758 6.59229 76.1378 6.50842 76.7249C6.4376 77.2206 6.55726 77.7541 6.73895 78.3183C6.91557 78.8668 7.19619 79.5724 7.58928 80.4961C7.51747 81.3115 6.98108 83.0484 5.15108 84.1464C3.53084 85.1185 2.39465 86.4134 1.73483 87.4856C1.40968 88.0139 1.17138 88.5349 1.06481 88.9745C1.01649 89.1738 0.965048 89.4734 1.03235 89.7805C1.06843 89.9451 1.15457 90.1829 1.36616 90.3852C1.5598 90.5704 1.79319 90.6634 2.01807 90.6886C2.06148 90.7035 2.13061 90.7301 2.22878 90.7724C2.43812 90.8625 2.72884 91.002 3.08839 91.1884C3.8047 91.5598 4.75362 92.0966 5.79802 92.7448C7.89885 94.0488 10.3166 95.761 11.9964 97.4408C12.1029 97.5473 12.2771 97.7914 12.5046 98.2411C12.7237 98.6743 12.962 99.2366 13.2178 99.9228C13.7293 101.295 14.2865 103.094 14.8845 105.208C15.758 108.295 16.7038 111.998 17.7088 115.933C18.0802 117.387 18.4596 118.872 18.8465 120.37C20.2763 125.906 21.8045 131.597 23.3828 136.387C24.172 138.783 24.9788 140.969 25.7985 142.806C26.6118 144.63 27.4639 146.17 28.3619 147.232L30.1253 149.316V146.663C30.1266 146.662 30.1281 146.66 30.1296 146.658C30.1964 146.589 30.3467 146.476 30.6296 146.349C31.1935 146.095 32.0814 145.875 33.2488 145.757C35.5675 145.522 38.7645 145.711 42.1402 146.6C48.8896 148.376 56.1437 152.878 58.6581 162.098L59.0385 163.492L60.2094 162.644C64.239 159.726 68.3222 159.019 72.2038 159.747C76.1183 160.482 79.8958 162.692 83.2143 165.725C86.5286 168.754 89.336 172.561 91.3117 176.396C93.2944 180.244 94.3989 184.042 94.3989 187.054V187.747L95.0478 187.99C97.1987 188.796 99.7907 190.661 102.53 193.446C105.255 196.216 108.07 199.838 110.676 204.073C115.891 212.548 120.228 223.402 121.383 234.661L121.406 234.892L121.53 235.089C122.555 236.73 123.742 239.735 125.038 243.856C126.324 247.948 127.69 253.051 129.094 258.824C131.902 270.367 134.85 284.535 137.598 298.533C140.154 311.553 142.536 324.415 144.472 334.866L144.9 337.176C146.899 347.965 148.377 355.885 148.981 357.998C149.537 359.943 149.935 363.255 150.294 367.269C150.459 369.12 150.615 371.098 150.775 373.132L150.812 373.595C150.985 375.79 151.164 378.041 151.366 380.247C151.77 384.65 152.269 388.92 153.008 392.249C153.377 393.911 153.815 395.384 154.353 396.538C154.873 397.654 155.573 398.66 156.574 399.105L156.662 399.144L156.756 399.165C160.43 400.013 162.683 401.391 164.036 403.13ZM1.97655 90.6759C1.97633 90.6757 1.98095 90.6768 1.99106 90.6798C1.98182 90.6777 1.97677 90.6762 1.97655 90.6759Z" fill="#0078B9" stroke="white" stroke-width="2"/>
<path d="M218.125 421.263C217.625 421.763 215.125 422.763 214.625 421.263C214.132 419.783 213.638 420.25 213.625 414.494C213.625 413.917 213.925 413.163 215.125 414.763C216.125 415.263 216.625 415.763 217.625 416.263C218.625 416.763 218.625 418.263 219.125 418.763C219.625 419.263 218.625 420.763 218.125 421.263Z" fill="#24ACF2"/>
<path d="M224.625 436.763C224.625 436.263 221.125 436.763 221.625 436.263C222.119 435.769 220.175 432.839 219.163 428.915C219.151 428.364 219.625 427.363 221.625 427.763C222.125 427.763 222.625 428.263 223.625 428.263C224.625 428.263 228.625 437.263 229.125 437.763C229.625 438.263 228.125 440.263 226.625 439.763C225.125 439.263 224.625 437.263 224.625 436.763Z" fill="#24ACF2"/>
<path d="M224.625 464.263C223.625 464.263 216.125 460.263 219.125 454.263C219.625 453.596 219.925 452.363 217.125 452.763C215.625 452.263 217.125 449.263 217.625 448.263C218.125 447.263 216.125 446.263 215.625 445.263C215.125 444.263 214.625 442.263 217.125 440.763C219.625 439.263 221.125 440.763 221.625 442.763C222.625 443.263 224.125 445.763 225.125 446.263C226.125 446.763 226.625 449.263 225.625 451.263C224.625 453.263 224.125 455.263 225.125 455.763C226.125 456.263 227.625 459.763 228.125 460.763C228.625 461.763 225.625 464.263 224.625 464.263Z" fill="#24ACF2"/>
<path d="M213.625 414.263C213.625 414.341 213.625 414.418 213.625 414.494M213.625 414.494C213.638 420.25 214.132 419.783 214.625 421.263C215.125 422.763 217.625 421.763 218.125 421.263C218.625 420.763 219.625 419.263 219.125 418.763C218.625 418.263 218.625 416.763 217.625 416.263C216.625 415.763 216.125 415.263 215.125 414.763C213.925 413.163 213.625 413.917 213.625 414.494ZM219.125 428.763C219.138 428.814 219.15 428.864 219.163 428.915M219.163 428.915C220.175 432.839 222.119 435.769 221.625 436.263C221.125 436.763 224.625 436.263 224.625 436.763C224.625 437.263 225.125 439.263 226.625 439.763C228.125 440.263 229.625 438.263 229.125 437.763C228.625 437.263 224.625 428.263 223.625 428.263C222.625 428.263 222.125 427.763 221.625 427.763C219.625 427.363 219.151 428.364 219.163 428.915ZM219.125 454.263C216.125 460.263 223.625 464.263 224.625 464.263C225.625 464.263 228.625 461.763 228.125 460.763C227.625 459.763 226.125 456.263 225.125 455.763C224.125 455.263 224.625 453.263 225.625 451.263C226.625 449.263 226.125 446.763 225.125 446.263C224.125 445.763 222.625 443.263 221.625 442.763C221.125 440.763 219.625 439.263 217.125 440.763C214.625 442.263 215.125 444.263 215.625 445.263C216.125 446.263 218.125 447.263 217.625 448.263C217.125 449.263 215.625 452.263 217.125 452.763C219.925 452.363 219.625 453.596 219.125 454.263Z" stroke="white" stroke-width="8"/>
<path d="M75.625 100.763C74.625 101.763 74.125 101.263 75.625 104.763C75.625 105.596 75.125 107.563 73.125 108.763C70.625 110.263 69.625 112.763 70.125 112.763C70.625 112.763 76.125 115.763 79.125 118.763C82.125 121.763 87.625 154.763 93.125 161.263C93.125 158.263 114.625 157.763 119.125 174.263C133.625 163.763 149.625 184.763 149.625 195.763C157.625 198.763 170.625 216.763 172.625 236.263C180.125 248.263 194.125 334.263 196.125 341.263C198.125 348.263 197.625 373.763 202.125 375.763C208.625 377.263 210.625 380.763 210.625 385.763C210.125 387.263 210.125 387.263 211.125 388.763C212.125 390.263 215.625 396.763 214.625 399.763C213.625 402.763 215.625 407.263 217.125 406.263C218.625 405.263 220.125 400.763 224.125 399.763C227.325 398.963 230.792 402.43 232.125 404.263C234.125 402.263 241.025 400.263 240.625 404.263C244.125 405.263 242.625 408.763 249.125 409.763V407.263C248.958 406.263 248.225 404.263 246.625 404.263C245.025 404.263 242.958 403.596 242.125 403.263C241.625 402.763 240.625 401.363 240.625 399.763C240.625 397.763 235.125 392.263 234.125 391.263C233.125 390.263 230.125 384.763 235.125 380.763C236.125 380.763 237.125 381.263 238.625 382.263C240.125 383.263 238.625 379.263 238.625 378.763C238.625 378.263 232.125 377.263 240.625 364.263C241.125 363.763 242.125 363.263 242.625 361.763C243.125 360.263 242.625 359.263 242.125 357.763C241.625 356.263 238.625 354.763 237.125 354.763C235.625 354.763 233.125 351.263 232.125 350.763C231.125 350.263 230.125 352.763 229.125 352.263C228.125 351.763 225.625 351.263 224.125 349.263C222.625 347.263 222.125 346.763 222.625 344.763C223.125 342.763 227.125 339.763 228.625 337.263C230.125 334.763 226.125 329.263 229.125 326.263C231.125 324.263 238.625 316.263 237.125 312.263C235.625 308.263 226.125 297.763 242.625 287.763C246.625 277.263 250.125 240.763 264.125 236.263C270.125 225.263 273.125 216.263 273.625 204.763C274.125 193.263 263.625 175.763 272.125 169.263C273.125 168.763 273.625 156.763 271.125 152.263C268.625 147.763 266.625 135.763 266.625 133.263C266.625 130.763 268.625 124.263 269.625 122.763C270.625 121.263 274.125 118.263 273.625 118.763C273.125 119.263 275.125 118.763 272.125 114.263C269.125 109.763 272.125 110.263 272.125 108.263C272.125 106.263 272.125 101.763 266.625 97.763C261.125 93.763 261.125 91.763 259.125 90.263C257.125 88.763 255.625 81.263 252.625 80.263C249.625 79.263 243.125 69.763 239.625 69.763C236.125 69.763 236.625 72.763 231.125 69.763C221.125 62.263 214.625 44.263 212.125 41.763C209.625 39.263 202.125 37.263 197.625 38.263C193.125 39.263 188.125 42.763 185.125 50.263C185.125 57.763 185.625 71.763 181.125 74.763C176.625 77.763 167.125 77.263 165.125 80.263C163.125 83.263 161.125 87.763 161.125 94.763C161.125 101.763 155.125 108.263 151.625 111.263C148.125 114.263 147.625 115.263 145.125 116.263C142.625 117.263 139.125 112.263 134.125 112.763C129.125 113.263 132.125 111.763 124.125 109.763C116.125 109.763 114.625 106.263 108.125 105.763C101.625 105.263 96.125 103.763 93.125 102.763C90.125 101.763 89.625 100.763 86.625 100.763C84.225 100.763 82.9583 102.763 82.625 103.763C82.125 103.43 80.925 102.563 80.125 101.763C79.125 100.763 76.625 99.763 75.625 100.763Z" fill="#24ACF2" stroke="white" stroke-width="8"/>
</svg>
