<svg width="252" height="450" viewBox="0 0 252 450" fill="none" xmlns="http://www.w3.org/2000/svg">
<path d="M156.374 404.605C155.846 405.133 153.206 406.189 152.679 404.605C152.158 403.043 151.637 403.536 151.623 397.46C151.623 396.851 151.94 396.054 153.206 397.744C154.262 398.271 154.79 398.799 155.846 399.327C156.901 399.855 156.901 401.438 157.429 401.966C157.957 402.494 156.901 404.078 156.374 404.605Z" fill="#898989"/>
<path d="M163.235 420.969C163.235 420.441 159.541 420.969 160.068 420.441C160.59 419.92 158.538 416.826 157.47 412.683C157.456 412.102 157.957 411.045 160.068 411.467C160.596 411.467 161.124 411.995 162.18 411.995C163.235 411.995 167.458 421.496 167.986 422.024C168.514 422.552 166.93 424.664 165.347 424.136C163.763 423.608 163.235 421.496 163.235 420.969Z" fill="#898989"/>
<path d="M163.235 450C162.18 450 154.262 445.777 157.429 439.443C157.957 438.739 158.274 437.437 155.318 437.86C153.734 437.332 155.318 434.165 155.846 433.109C156.374 432.053 154.262 430.998 153.734 429.942C153.206 428.886 152.679 426.775 155.318 425.191C157.957 423.608 159.541 425.191 160.068 427.303C161.124 427.831 162.708 430.47 163.763 430.998C164.819 431.526 165.347 434.165 164.291 436.276C163.235 438.387 162.708 440.499 163.763 441.027C164.819 441.555 166.403 445.249 166.93 446.305C167.458 447.361 164.291 450 163.235 450Z" fill="#898989"/>
<path d="M5.93824 66.258C4.88255 67.3137 4.35471 66.7859 5.93824 70.4808C5.93824 71.3605 5.41039 73.4367 3.29902 74.7035C0.659802 76.287 -0.395882 78.9262 0.131961 78.9262C0.659804 78.9262 6.46608 82.0933 9.63314 85.2604C12.8002 88.4274 18.6065 123.265 24.4127 130.127C24.4127 126.96 47.11 126.432 51.8606 143.851C67.168 132.766 84.059 154.936 84.059 166.548C92.5045 169.715 106.228 188.718 108.34 209.303C116.257 221.972 131.037 312.761 133.148 320.151C135.26 327.54 134.732 354.46 139.483 356.572C146.344 358.155 148.456 361.85 148.456 367.129C147.928 368.712 147.928 368.712 148.984 370.296C150.039 371.879 153.734 378.741 152.679 381.908C151.623 385.075 153.734 389.826 155.318 388.77C156.901 387.714 158.485 382.964 162.708 381.908C166.086 381.064 169.746 384.723 171.153 386.659C173.264 384.547 180.549 382.436 180.126 386.659C183.821 387.714 182.238 391.409 189.1 392.465V389.826C188.924 388.77 188.15 386.659 186.461 386.659C184.771 386.659 182.59 385.955 181.71 385.603C181.182 385.075 180.126 383.597 180.126 381.908C180.126 379.797 174.32 373.991 173.264 372.935C172.209 371.879 169.042 366.073 174.32 361.85C175.376 361.85 176.432 362.378 178.015 363.434C179.599 364.489 178.015 360.267 178.015 359.739C178.015 359.211 171.153 358.155 180.126 344.431C180.654 343.904 181.71 343.376 182.238 341.792C182.766 340.209 182.238 339.153 181.71 337.569C181.182 335.986 178.015 334.402 176.432 334.402C174.848 334.402 172.209 330.707 171.153 330.18C170.097 329.652 169.042 332.291 167.986 331.763C166.93 331.235 164.291 330.707 162.708 328.596C161.124 326.485 160.596 325.957 161.124 323.845C161.652 321.734 165.875 318.567 167.458 315.928C169.042 313.289 164.819 307.482 167.986 304.315C170.097 302.204 178.015 293.758 176.432 289.536C174.848 285.313 164.819 274.228 182.238 263.671C186.461 252.587 190.155 214.054 204.935 209.303C211.269 197.691 214.436 188.19 214.964 176.049C215.492 163.909 204.407 145.434 213.381 138.573C214.436 138.045 214.964 125.376 212.325 120.626C209.686 115.875 207.574 103.207 207.574 100.568C207.574 97.9286 209.686 91.0666 210.741 89.4831C211.797 87.8996 215.492 84.7325 214.964 85.2604C214.436 85.7882 216.548 85.2604 213.381 80.5098C210.213 75.7592 213.381 76.287 213.381 74.1757C213.381 72.0643 213.381 67.3137 207.574 63.091C201.768 58.8682 201.768 56.7568 199.657 55.1733C197.545 53.5898 195.962 45.6721 192.795 44.6164C189.628 43.5608 182.766 33.5317 179.071 33.5317C175.376 33.5317 175.904 36.6988 170.097 33.5317C159.541 25.6141 152.679 6.61174 150.039 3.97253C147.4 1.33331 139.483 -0.778061 134.732 0.277625C129.981 1.33331 124.703 5.02821 121.536 12.9459C121.536 20.8635 122.064 35.6431 117.313 38.8102C112.563 41.9772 102.534 41.4494 100.422 44.6164C98.3108 47.7835 96.1994 52.5341 96.1994 59.9239C96.1994 67.3137 89.8653 74.1757 86.1704 77.3427C82.4755 80.5098 81.9476 81.5655 79.3084 82.6211C76.6692 83.6768 72.9743 78.3984 67.6959 78.9262C62.4174 79.4541 65.5845 77.8706 57.139 75.7592C48.6935 75.7592 47.11 72.0643 40.248 71.5364C33.3861 71.0086 27.5798 69.4251 24.4127 68.3694C21.2457 67.3137 20.7178 66.258 17.5508 66.258C15.0171 66.258 13.6799 68.3694 13.328 69.4251C12.8002 69.0732 11.5334 68.1582 10.6888 67.3137C9.63314 66.258 6.99392 65.2023 5.93824 66.258Z" fill="#898989"/>
<path d="M193.125 399.263C192.625 399.763 190.125 400.763 189.625 399.263C189.132 397.783 188.638 398.25 188.625 392.494C188.625 391.917 188.925 391.163 190.125 392.763C191.125 393.263 191.625 393.763 192.625 394.263C193.625 394.763 193.625 396.263 194.125 396.763C194.625 397.263 193.625 398.763 193.125 399.263Z" fill="white"/>
<path d="M199.625 414.763C199.625 414.263 196.125 414.763 196.625 414.263C197.119 413.769 195.175 410.839 194.163 406.915C194.151 406.364 194.625 405.363 196.625 405.763C197.125 405.763 197.625 406.263 198.625 406.263C199.625 406.263 203.625 415.263 204.125 415.763C204.625 416.263 203.125 418.263 201.625 417.763C200.125 417.263 199.625 415.263 199.625 414.763Z" fill="white"/>
<path d="M199.625 442.263C198.625 442.263 191.125 438.263 194.125 432.263C194.625 431.596 194.925 430.363 192.125 430.763C190.625 430.263 192.125 427.263 192.625 426.263C193.125 425.263 191.125 424.263 190.625 423.263C190.125 422.263 189.625 420.263 192.125 418.763C194.625 417.263 196.125 418.763 196.625 420.763C197.625 421.263 199.125 423.763 200.125 424.263C201.125 424.763 201.625 427.263 200.625 429.263C199.625 431.263 199.125 433.263 200.125 433.763C201.125 434.263 202.625 437.763 203.125 438.763C203.625 439.763 200.625 442.263 199.625 442.263Z" fill="white"/>
<path d="M188.625 392.263C188.625 392.341 188.625 392.418 188.625 392.494M188.625 392.494C188.638 398.25 189.132 397.783 189.625 399.263C190.125 400.763 192.625 399.763 193.125 399.263C193.625 398.763 194.625 397.263 194.125 396.763C193.625 396.263 193.625 394.763 192.625 394.263C191.625 393.763 191.125 393.263 190.125 392.763C188.925 391.163 188.625 391.917 188.625 392.494ZM194.125 406.763C194.138 406.814 194.15 406.864 194.163 406.915M194.163 406.915C195.175 410.839 197.119 413.769 196.625 414.263C196.125 414.763 199.625 414.263 199.625 414.763C199.625 415.263 200.125 417.263 201.625 417.763C203.125 418.263 204.625 416.263 204.125 415.763C203.625 415.263 199.625 406.263 198.625 406.263C197.625 406.263 197.125 405.763 196.625 405.763C194.625 405.363 194.151 406.364 194.163 406.915ZM194.125 432.263C191.125 438.263 198.625 442.263 199.625 442.263C200.625 442.263 203.625 439.763 203.125 438.763C202.625 437.763 201.125 434.263 200.125 433.763C199.125 433.263 199.625 431.263 200.625 429.263C201.625 427.263 201.125 424.763 200.125 424.263C199.125 423.763 197.625 421.263 196.625 420.763C196.125 418.763 194.625 417.263 192.125 418.763C189.625 420.263 190.125 422.263 190.625 423.263C191.125 424.263 193.125 425.263 192.625 426.263C192.125 427.263 190.625 430.263 192.125 430.763C194.925 430.363 194.625 431.596 194.125 432.263Z" stroke="white" stroke-width="5"/>
<path d="M50.625 78.763C49.625 79.763 49.125 79.263 50.625 82.763C50.625 83.5963 50.125 85.563 48.125 86.763C45.625 88.263 44.625 90.763 45.125 90.763C45.625 90.763 51.125 93.763 54.125 96.763C57.125 99.763 62.625 132.763 68.125 139.263C68.125 136.263 89.625 135.763 94.125 152.263C108.625 141.763 124.625 162.763 124.625 173.763C132.625 176.763 145.625 194.763 147.625 214.263C155.125 226.263 169.125 312.263 171.125 319.263C173.125 326.263 172.625 351.763 177.125 353.763C183.625 355.263 185.625 358.763 185.625 363.763C185.125 365.263 185.125 365.263 186.125 366.763C187.125 368.263 190.625 374.763 189.625 377.763C188.625 380.763 190.625 385.263 192.125 384.263C193.625 383.263 195.125 378.763 199.125 377.763C202.325 376.963 205.792 380.43 207.125 382.263C209.125 380.263 216.025 378.263 215.625 382.263C219.125 383.263 217.625 386.763 224.125 387.763V385.263C223.958 384.263 223.225 382.263 221.625 382.263C220.025 382.263 217.958 381.596 217.125 381.263C216.625 380.763 215.625 379.363 215.625 377.763C215.625 375.763 210.125 370.263 209.125 369.263C208.125 368.263 205.125 362.763 210.125 358.763C211.125 358.763 212.125 359.263 213.625 360.263C215.125 361.263 213.625 357.263 213.625 356.763C213.625 356.263 207.125 355.263 215.625 342.263C216.125 341.763 217.125 341.263 217.625 339.763C218.125 338.263 217.625 337.263 217.125 335.763C216.625 334.263 213.625 332.763 212.125 332.763C210.625 332.763 208.125 329.263 207.125 328.763C206.125 328.263 205.125 330.763 204.125 330.263C203.125 329.763 200.625 329.263 199.125 327.263C197.625 325.263 197.125 324.763 197.625 322.763C198.125 320.763 202.125 317.763 203.625 315.263C205.125 312.763 201.125 307.263 204.125 304.263C206.125 302.263 213.625 294.263 212.125 290.263C210.625 286.263 201.125 275.763 217.625 265.763C221.625 255.263 225.125 218.763 239.125 214.263C245.125 203.263 248.125 194.263 248.625 182.763C249.125 171.263 238.625 153.763 247.125 147.263C248.125 146.763 248.625 134.763 246.125 130.263C243.625 125.763 241.625 113.763 241.625 111.263C241.625 108.763 243.625 102.263 244.625 100.763C245.625 99.263 249.125 96.263 248.625 96.763C248.125 97.263 250.125 96.763 247.125 92.263C244.125 87.763 247.125 88.263 247.125 86.263C247.125 84.263 247.125 79.763 241.625 75.763C236.125 71.763 236.125 69.763 234.125 68.263C232.125 66.763 230.625 59.263 227.625 58.263C224.625 57.263 218.125 47.763 214.625 47.763C211.125 47.763 211.625 50.763 206.125 47.763C196.125 40.263 189.625 22.263 187.125 19.763C184.625 17.263 177.125 15.263 172.625 16.263C168.125 17.263 163.125 20.763 160.125 28.263C160.125 35.763 160.625 49.763 156.125 52.763C151.625 55.763 142.125 55.263 140.125 58.263C138.125 61.263 136.125 65.763 136.125 72.763C136.125 79.763 130.125 86.263 126.625 89.263C123.125 92.263 122.625 93.263 120.125 94.263C117.625 95.263 114.125 90.263 109.125 90.763C104.125 91.263 107.125 89.763 99.125 87.763C91.125 87.763 89.625 84.263 83.125 83.763C76.625 83.263 71.125 81.763 68.125 80.763C65.125 79.763 64.625 78.763 61.625 78.763C59.225 78.763 57.9583 80.763 57.625 81.763C57.125 81.4296 55.925 80.563 55.125 79.763C54.125 78.763 51.625 77.763 50.625 78.763Z" fill="white" stroke="white" stroke-width="5"/>
</svg>
